<svg xmlns="http://www.w3.org/2000/svg" xmlns:xlink="http://www.w3.org/1999/xlink" width="500" zoomAndPan="magnify" viewBox="0 0 375 374.999991" height="500" preserveAspectRatio="xMidYMid meet" version="1.0"><defs><g/><clipPath id="ad63288d71"><path d="M 73.726562 0 L 301.726562 0 L 301.726562 209.25 L 73.726562 209.25 Z M 73.726562 0 " clip-rule="nonzero"/></clipPath></defs><path fill="#ff914d" d="M 187.761719 43.824219 C 217.628906 43.824219 241.84375 68.039062 241.84375 97.902344 C 241.84375 127.769531 217.628906 151.984375 187.761719 151.984375 L 134.351562 151.984375 C 140.65625 147.734375 146.371094 143.089844 151.667969 138.171875 L 151.6875 138.1875 C 140.636719 128.292969 133.6875 113.917969 133.6875 97.902344 C 133.6875 68.039062 157.902344 43.824219 187.769531 43.824219 Z M 187.761719 43.824219 " fill-opacity="1" fill-rule="evenodd"/><g clip-path="url(#ad63288d71)"><path fill="#000000" d="M 101.582031 51.738281 L 100.144531 51.738281 C 85.613281 51.738281 73.726562 63.628906 73.726562 78.15625 L 73.726562 103.769531 C 73.726562 118.34375 85.671875 130.191406 100.144531 130.191406 L 114.722656 130.191406 C 110.355469 120.316406 107.925781 109.390625 107.925781 97.898438 C 107.925781 53.949219 143.523438 18.050781 187.769531 18.050781 C 232.007812 18.050781 267.613281 53.941406 267.613281 97.898438 C 267.613281 109.390625 265.1875 120.3125 260.8125 130.191406 C 250.980469 152.410156 231.304688 169.289062 207.324219 175.328125 C 203.414062 168.59375 196.117188 164.070312 187.769531 164.070312 C 175.289062 164.070312 165.167969 174.183594 165.167969 186.671875 C 165.167969 199.152344 175.289062 209.269531 187.769531 209.269531 C 197.960938 209.269531 206.582031 202.519531 209.394531 193.242188 C 242.539062 185.757812 269.296875 161.449219 280.210938 129.742188 C 292.457031 127.460938 301.808594 116.652344 301.808594 103.769531 L 301.808594 78.15625 C 301.808594 63.628906 289.917969 51.738281 275.386719 51.738281 L 273.949219 51.738281 C 257.472656 21.035156 225.058594 0.15625 187.761719 0.15625 C 150.476562 0.15625 118.0625 21.035156 101.578125 51.738281 Z M 101.582031 51.738281 " fill-opacity="1" fill-rule="evenodd"/></g><g fill="#000000" fill-opacity="1"><g transform="translate(20.996334, 300.094944)"><g><path d="M 25.65625 -9.34375 L 25.65625 -18.171875 L 37.390625 -18.171875 L 37.390625 -10.765625 C 37.390625 -3.003906 33.742188 0.875 26.453125 0.875 L 15.34375 0.875 C 8.050781 0.875 4.40625 -3.003906 4.40625 -10.765625 L 4.40625 -46.296875 C 4.40625 -54.054688 8.050781 -57.9375 15.34375 -57.9375 L 26.453125 -57.9375 C 33.742188 -57.9375 37.390625 -54.054688 37.390625 -46.296875 L 37.390625 -40.921875 L 25.65625 -40.921875 L 25.65625 -47.796875 C 25.65625 -48.265625 25.492188 -48.675781 25.171875 -49.03125 C 24.847656 -49.382812 24.453125 -49.5625 23.984375 -49.5625 L 18.4375 -49.5625 C 17.957031 -49.5625 17.554688 -49.382812 17.234375 -49.03125 C 16.910156 -48.675781 16.75 -48.265625 16.75 -47.796875 L 16.75 -9.34375 C 16.75 -8.875 16.910156 -8.460938 17.234375 -8.109375 C 17.554688 -7.753906 17.957031 -7.578125 18.4375 -7.578125 L 23.984375 -7.578125 C 24.453125 -7.578125 24.847656 -7.753906 25.171875 -8.109375 C 25.492188 -8.460938 25.65625 -8.875 25.65625 -9.34375 Z M 25.65625 -9.34375 "/></g></g></g><g fill="#000000" fill-opacity="1"><g transform="translate(61.387393, 300.094944)"><g><path d="M 24.78125 -57.0625 L 37.125 -57.0625 L 37.125 -10.765625 C 37.125 -3.003906 33.476562 0.875 26.1875 0.875 L 15.25 0.875 C 7.96875 0.875 4.328125 -3.003906 4.328125 -10.765625 L 4.328125 -57.0625 L 16.671875 -57.0625 L 16.671875 -9.703125 C 16.671875 -9.234375 16.832031 -8.820312 17.15625 -8.46875 C 17.476562 -8.113281 17.875 -7.9375 18.34375 -7.9375 L 23.109375 -7.9375 C 23.578125 -7.9375 23.972656 -8.113281 24.296875 -8.46875 C 24.617188 -8.820312 24.78125 -9.234375 24.78125 -9.703125 Z M 24.78125 -57.0625 "/></g></g></g><g fill="#000000" fill-opacity="1"><g transform="translate(102.572162, 300.094944)"><g><path d="M 36.0625 -42.0625 L 24.34375 -42.0625 L 24.34375 -46.5625 C 24.34375 -47.03125 24.179688 -47.441406 23.859375 -47.796875 C 23.535156 -48.148438 23.140625 -48.328125 22.671875 -48.328125 L 17.8125 -48.328125 C 17.34375 -48.328125 16.945312 -48.148438 16.625 -47.796875 C 16.300781 -47.441406 16.140625 -47.03125 16.140625 -46.5625 L 16.140625 -36.421875 C 16.140625 -35.953125 16.300781 -35.539062 16.625 -35.1875 C 16.945312 -34.832031 17.34375 -34.65625 17.8125 -34.65625 L 25.75 -34.65625 C 33.039062 -34.539062 36.6875 -30.660156 36.6875 -23.015625 L 36.6875 -10.765625 C 36.6875 -3.003906 33.039062 0.875 25.75 0.875 L 15.34375 0.875 C 8.050781 0.875 4.40625 -3.003906 4.40625 -10.765625 L 4.40625 -16.671875 L 16.140625 -16.671875 L 16.140625 -10.3125 C 16.140625 -9.84375 16.300781 -9.429688 16.625 -9.078125 C 16.945312 -8.722656 17.34375 -8.546875 17.8125 -8.546875 L 23.28125 -8.546875 C 23.75 -8.546875 24.144531 -8.722656 24.46875 -9.078125 C 24.789062 -9.429688 24.953125 -9.84375 24.953125 -10.3125 L 24.953125 -21.515625 C 24.953125 -21.984375 24.789062 -22.394531 24.46875 -22.75 C 24.144531 -23.101562 23.75 -23.28125 23.28125 -23.28125 L 15.34375 -23.28125 C 8.050781 -23.28125 4.40625 -27.160156 4.40625 -34.921875 L 4.40625 -46.296875 C 4.40625 -54.054688 8.050781 -57.9375 15.34375 -57.9375 L 25.140625 -57.9375 C 32.421875 -57.9375 36.0625 -54.054688 36.0625 -46.296875 Z M 36.0625 -42.0625 "/></g></g></g><g fill="#000000" fill-opacity="1"><g transform="translate(142.963221, 300.094944)"><g><path d="M 1.140625 -46.5625 L 1.140625 -57.0625 L 32.015625 -57.0625 L 32.015625 -46.5625 L 22.75 -46.5625 L 22.75 0 L 10.40625 0 L 10.40625 -46.5625 Z M 1.140625 -46.5625 "/></g></g></g><g fill="#000000" fill-opacity="1"><g transform="translate(176.210888, 300.094944)"><g><path d="M 38.015625 -46.296875 L 38.015625 -10.765625 C 38.015625 -3.003906 34.367188 0.875 27.078125 0.875 L 15.34375 0.875 C 8.050781 0.875 4.40625 -3.003906 4.40625 -10.765625 L 4.40625 -46.296875 C 4.40625 -54.054688 8.050781 -57.9375 15.34375 -57.9375 L 27.078125 -57.9375 C 34.367188 -57.9375 38.015625 -54.054688 38.015625 -46.296875 Z M 25.65625 -9.34375 L 25.65625 -47.796875 C 25.65625 -48.265625 25.492188 -48.675781 25.171875 -49.03125 C 24.847656 -49.382812 24.453125 -49.5625 23.984375 -49.5625 L 18.4375 -49.5625 C 17.957031 -49.5625 17.554688 -49.382812 17.234375 -49.03125 C 16.910156 -48.675781 16.75 -48.265625 16.75 -47.796875 L 16.75 -9.34375 C 16.75 -8.875 16.910156 -8.460938 17.234375 -8.109375 C 17.554688 -7.753906 17.957031 -7.578125 18.4375 -7.578125 L 23.984375 -7.578125 C 24.453125 -7.578125 24.847656 -7.753906 25.171875 -8.109375 C 25.492188 -8.460938 25.65625 -8.875 25.65625 -9.34375 Z M 25.65625 -9.34375 "/></g></g></g><g fill="#000000" fill-opacity="1"><g transform="translate(218.894883, 300.094944)"><g><path d="M 16.671875 0 L 4.328125 0 L 4.328125 -46.296875 C 4.328125 -54.054688 7.96875 -57.9375 15.25 -57.9375 L 21.78125 -57.9375 C 26.070312 -57.9375 29.128906 -56.523438 30.953125 -53.703125 C 32.660156 -56.523438 35.71875 -57.9375 40.125 -57.9375 L 46.65625 -57.9375 C 53.945312 -57.9375 57.59375 -54.054688 57.59375 -46.296875 L 57.59375 0 L 45.234375 0 L 45.234375 -47.359375 C 45.234375 -47.828125 45.070312 -48.238281 44.75 -48.59375 C 44.425781 -48.945312 44.03125 -49.125 43.5625 -49.125 L 38.796875 -49.125 C 38.328125 -49.125 37.929688 -48.945312 37.609375 -48.59375 C 37.285156 -48.238281 37.125 -47.828125 37.125 -47.359375 L 37.125 0 L 24.78125 0 L 24.78125 -47.359375 C 24.78125 -47.828125 24.617188 -48.238281 24.296875 -48.59375 C 23.972656 -48.945312 23.578125 -49.125 23.109375 -49.125 L 18.34375 -49.125 C 17.875 -49.125 17.476562 -48.945312 17.15625 -48.59375 C 16.832031 -48.238281 16.671875 -47.828125 16.671875 -47.359375 Z M 16.671875 0 "/></g></g></g><g fill="#000000" fill-opacity="1"><g transform="translate(280.539746, 300.094944)"><g><path d="M 16.75 -10.234375 L 30.421875 -10.234375 L 30.421875 0 L 4.40625 0 L 4.40625 -57.0625 L 30.421875 -57.0625 L 30.421875 -47 L 16.75 -47 L 16.75 -33.59375 L 29.546875 -33.59375 L 29.546875 -23.90625 L 16.75 -23.90625 Z M 16.75 -10.234375 "/></g></g></g><g fill="#000000" fill-opacity="1"><g transform="translate(313.699237, 300.094944)"><g><path d="M 16.75 -23.375 L 16.75 0 L 4.40625 0 L 4.40625 -57.0625 L 26.375 -57.0625 C 33.65625 -57.0625 37.296875 -53.179688 37.296875 -45.421875 L 37.296875 -38.796875 C 37.296875 -34.097656 35.625 -31.101562 32.28125 -29.8125 C 35.21875 -28.75 36.6875 -26.335938 36.6875 -22.578125 L 36.6875 0 L 24.34375 0 L 24.34375 -21.609375 C 24.34375 -22.785156 23.785156 -23.375 22.671875 -23.375 Z M 16.75 -48.671875 L 16.75 -32.015625 L 23.28125 -32.015625 C 23.75 -32.015625 24.144531 -32.1875 24.46875 -32.53125 C 24.789062 -32.882812 24.953125 -33.300781 24.953125 -33.78125 L 24.953125 -46.921875 C 24.953125 -47.390625 24.789062 -47.796875 24.46875 -48.140625 C 24.144531 -48.492188 23.75 -48.671875 23.28125 -48.671875 Z M 16.75 -48.671875 "/></g></g></g><g fill="#ff914d" fill-opacity="1"><g transform="translate(105.246611, 363.792384)"><g><path d="M 17.671875 -20.609375 L 11.921875 -20.609375 L 11.921875 -22.8125 C 11.921875 -23.050781 11.84375 -23.253906 11.6875 -23.421875 C 11.53125 -23.597656 11.335938 -23.6875 11.109375 -23.6875 L 8.734375 -23.6875 C 8.503906 -23.6875 8.304688 -23.597656 8.140625 -23.421875 C 7.984375 -23.253906 7.90625 -23.050781 7.90625 -22.8125 L 7.90625 -17.84375 C 7.90625 -17.613281 7.984375 -17.410156 8.140625 -17.234375 C 8.304688 -17.066406 8.503906 -16.984375 8.734375 -16.984375 L 12.625 -16.984375 C 16.195312 -16.929688 17.984375 -15.03125 17.984375 -11.28125 L 17.984375 -5.265625 C 17.984375 -1.460938 16.195312 0.4375 12.625 0.4375 L 7.515625 0.4375 C 3.941406 0.4375 2.15625 -1.460938 2.15625 -5.265625 L 2.15625 -8.171875 L 7.90625 -8.171875 L 7.90625 -5.0625 C 7.90625 -4.820312 7.984375 -4.613281 8.140625 -4.4375 C 8.304688 -4.269531 8.503906 -4.1875 8.734375 -4.1875 L 11.40625 -4.1875 C 11.632812 -4.1875 11.828125 -4.269531 11.984375 -4.4375 C 12.148438 -4.613281 12.234375 -4.820312 12.234375 -5.0625 L 12.234375 -10.546875 C 12.234375 -10.773438 12.148438 -10.972656 11.984375 -11.140625 C 11.828125 -11.316406 11.632812 -11.40625 11.40625 -11.40625 L 7.515625 -11.40625 C 3.941406 -11.40625 2.15625 -13.304688 2.15625 -17.109375 L 2.15625 -22.6875 C 2.15625 -26.488281 3.941406 -28.390625 7.515625 -28.390625 L 12.3125 -28.390625 C 15.882812 -28.390625 17.671875 -26.488281 17.671875 -22.6875 Z M 17.671875 -20.609375 "/></g></g></g><g fill="#ff914d" fill-opacity="1"><g transform="translate(132.084026, 363.792384)"><g><path d="M 8.21875 -5.015625 L 14.90625 -5.015625 L 14.90625 0 L 2.15625 0 L 2.15625 -27.96875 L 14.90625 -27.96875 L 14.90625 -23.03125 L 8.21875 -23.03125 L 8.21875 -16.46875 L 14.484375 -16.46875 L 14.484375 -11.71875 L 8.21875 -11.71875 Z M 8.21875 -5.015625 "/></g></g></g><g fill="#ff914d" fill-opacity="1"><g transform="translate(155.377871, 363.792384)"><g><path d="M 8.21875 -11.453125 L 8.21875 0 L 2.15625 0 L 2.15625 -27.96875 L 12.921875 -27.96875 C 16.492188 -27.96875 18.28125 -26.0625 18.28125 -22.25 L 18.28125 -19.015625 C 18.28125 -16.710938 17.457031 -15.242188 15.8125 -14.609375 C 17.257812 -14.085938 17.984375 -12.90625 17.984375 -11.0625 L 17.984375 0 L 11.921875 0 L 11.921875 -10.59375 C 11.921875 -11.164062 11.648438 -11.453125 11.109375 -11.453125 Z M 8.21875 -23.859375 L 8.21875 -15.6875 L 11.40625 -15.6875 C 11.632812 -15.6875 11.828125 -15.769531 11.984375 -15.9375 C 12.148438 -16.113281 12.234375 -16.316406 12.234375 -16.546875 L 12.234375 -23 C 12.234375 -23.226562 12.148438 -23.425781 11.984375 -23.59375 C 11.828125 -23.769531 11.632812 -23.859375 11.40625 -23.859375 Z M 8.21875 -23.859375 "/></g></g></g><g fill="#ff914d" fill-opacity="1"><g transform="translate(182.431354, 363.792384)"><g><path d="M 13.4375 -27.96875 L 19.28125 -27.96875 L 13.484375 0 L 6.53125 0 L 0.734375 -27.96875 L 6.609375 -27.96875 L 10.03125 -7.5625 Z M 13.4375 -27.96875 "/></g></g></g><g fill="#ff914d" fill-opacity="1"><g transform="translate(209.571267, 363.792384)"><g><path d="M 8.21875 -27.96875 L 8.21875 0 L 2.15625 0 L 2.15625 -27.96875 Z M 8.21875 -27.96875 "/></g></g></g><g fill="#ff914d" fill-opacity="1"><g transform="translate(227.160827, 363.792384)"><g><path d="M 12.578125 -4.578125 L 12.578125 -8.90625 L 18.328125 -8.90625 L 18.328125 -5.265625 C 18.328125 -1.460938 16.539062 0.4375 12.96875 0.4375 L 7.515625 0.4375 C 3.941406 0.4375 2.15625 -1.460938 2.15625 -5.265625 L 2.15625 -22.6875 C 2.15625 -26.488281 3.941406 -28.390625 7.515625 -28.390625 L 12.96875 -28.390625 C 16.539062 -28.390625 18.328125 -26.488281 18.328125 -22.6875 L 18.328125 -20.046875 L 12.578125 -20.046875 L 12.578125 -23.421875 C 12.578125 -23.648438 12.492188 -23.847656 12.328125 -24.015625 C 12.171875 -24.191406 11.976562 -24.28125 11.75 -24.28125 L 9.03125 -24.28125 C 8.800781 -24.28125 8.609375 -24.191406 8.453125 -24.015625 C 8.296875 -23.847656 8.21875 -23.648438 8.21875 -23.421875 L 8.21875 -4.578125 C 8.21875 -4.347656 8.296875 -4.144531 8.453125 -3.96875 C 8.609375 -3.800781 8.800781 -3.71875 9.03125 -3.71875 L 11.75 -3.71875 C 11.976562 -3.71875 12.171875 -3.800781 12.328125 -3.96875 C 12.492188 -4.144531 12.578125 -4.347656 12.578125 -4.578125 Z M 12.578125 -4.578125 "/></g></g></g><g fill="#ff914d" fill-opacity="1"><g transform="translate(253.998248, 363.792384)"><g><path d="M 8.21875 -5.015625 L 14.90625 -5.015625 L 14.90625 0 L 2.15625 0 L 2.15625 -27.96875 L 14.90625 -27.96875 L 14.90625 -23.03125 L 8.21875 -23.03125 L 8.21875 -16.46875 L 14.484375 -16.46875 L 14.484375 -11.71875 L 8.21875 -11.71875 Z M 8.21875 -5.015625 "/></g></g></g></svg>