<svg xmlns="http://www.w3.org/2000/svg" xmlns:xlink="http://www.w3.org/1999/xlink" width="500" zoomAndPan="magnify" viewBox="0 0 375 374.999991" height="500" preserveAspectRatio="xMidYMid meet" version="1.0"><defs><g/><clipPath id="1e20b6eae7"><path d="M 50 100.304688 L 175.535156 100.304688 L 175.535156 274.613281 L 50 274.613281 Z M 50 100.304688 " clip-rule="nonzero"/></clipPath><clipPath id="5a1503dad1"><path d="M 0 100.304688 L 99.953125 100.304688 L 99.953125 200.257812 L 0 200.257812 Z M 0 100.304688 " clip-rule="nonzero"/></clipPath></defs><g clip-path="url(#1e20b6eae7)"><path fill="#5271ff" d="M 175.234375 150.011719 C 175.304688 177.554688 152.917969 199.988281 125.390625 199.988281 L 98.238281 199.988281 C 86.464844 199.988281 76.921875 209.53125 76.921875 221.304688 L 76.921875 248.742188 L 50.976562 274.6875 L 50.976562 228.019531 C 50.976562 198.210938 75.140625 174.039062 104.953125 174.039062 L 125.394531 174.039062 C 138.535156 174.039062 149.238281 163.375 149.292969 150.242188 C 149.347656 137.046875 138.4375 126.246094 125.238281 126.246094 L 75.953125 126.246094 L 50.007812 100.304688 L 125.15625 100.304688 C 152.667969 100.304688 175.164062 122.503906 175.234375 150.011719 Z M 175.234375 150.011719 " fill-opacity="1" fill-rule="nonzero"/></g><path fill="#5271ff" d="M 49.984375 198.972656 C 23.128906 198.972656 1.28125 177.125 1.28125 150.269531 L 1.28125 101.609375 L 21.785156 101.609375 L 21.785156 150.269531 C 21.785156 165.816406 34.4375 178.464844 49.984375 178.464844 C 65.53125 178.464844 78.183594 165.816406 78.183594 150.269531 L 78.183594 101.609375 L 98.691406 101.609375 L 98.691406 150.269531 C 98.691406 177.125 76.839844 198.972656 49.984375 198.972656 " fill-opacity="1" fill-rule="nonzero"/><g clip-path="url(#5a1503dad1)"><path fill="#5271ff" d="M 2.5625 102.890625 L 2.5625 150.269531 C 2.5625 176.421875 23.835938 197.691406 49.984375 197.691406 C 76.132812 197.691406 97.410156 176.421875 97.410156 150.269531 L 97.410156 102.890625 L 79.464844 102.890625 L 79.464844 150.269531 C 79.464844 166.523438 66.242188 179.746094 49.984375 179.746094 C 33.726562 179.746094 20.503906 166.523438 20.503906 150.269531 L 20.503906 102.890625 Z M 49.984375 200.253906 C 22.421875 200.253906 0 177.832031 0 150.269531 L 0 100.328125 L 23.070312 100.328125 L 23.070312 150.269531 C 23.070312 165.109375 35.144531 177.1875 49.984375 177.1875 C 64.824219 177.1875 76.898438 165.109375 76.898438 150.269531 L 76.898438 100.328125 L 99.972656 100.328125 L 99.972656 150.269531 C 99.972656 177.832031 77.546875 200.253906 49.984375 200.253906 " fill-opacity="1" fill-rule="nonzero"/></g><g fill="#ffffff" fill-opacity="1"><g transform="translate(185.419665, 159.898837)"><g><path d="M 16.34375 -24.734375 C 18.8125 -24.734375 20.804688 -25.304688 22.328125 -26.453125 C 23.847656 -27.609375 24.609375 -29.515625 24.609375 -32.171875 C 24.609375 -35.035156 23.890625 -37.007812 22.453125 -38.09375 C 21.023438 -39.175781 18.988281 -39.71875 16.34375 -39.71875 L 11.71875 -39.71875 L 11.71875 -24.734375 Z M 5.203125 0 L 5.203125 -44.921875 L 16.015625 -44.921875 C 18.234375 -44.921875 20.304688 -44.734375 22.234375 -44.359375 C 24.160156 -43.992188 25.828125 -43.34375 27.234375 -42.40625 C 28.648438 -41.476562 29.757812 -40.191406 30.5625 -38.546875 C 31.363281 -36.898438 31.765625 -34.773438 31.765625 -32.171875 C 31.765625 -29.992188 31.394531 -28.113281 30.65625 -26.53125 C 29.925781 -24.945312 28.921875 -23.632812 27.640625 -22.59375 C 26.359375 -21.550781 24.847656 -20.78125 23.109375 -20.28125 C 21.378906 -19.78125 19.515625 -19.53125 17.515625 -19.53125 L 11.71875 -19.53125 L 11.71875 0 Z M 5.203125 0 "/></g></g></g><g fill="#ffffff" fill-opacity="1"><g transform="translate(217.968443, 159.898837)"><g><path d="M 16.34375 -3.84375 C 17.945312 -3.84375 19.210938 -4.222656 20.140625 -4.984375 C 21.078125 -5.742188 21.796875 -6.695312 22.296875 -7.84375 C 22.796875 -9 23.117188 -10.257812 23.265625 -11.625 C 23.421875 -12.988281 23.5 -14.28125 23.5 -15.5 C 23.5 -16.707031 23.421875 -17.992188 23.265625 -19.359375 C 23.117188 -20.734375 22.804688 -21.992188 22.328125 -23.140625 C 21.847656 -24.296875 21.128906 -25.253906 20.171875 -26.015625 C 19.222656 -26.773438 17.945312 -27.15625 16.34375 -27.15625 C 14.738281 -27.15625 13.457031 -26.785156 12.5 -26.046875 C 11.539062 -25.304688 10.8125 -24.359375 10.3125 -23.203125 C 9.820312 -22.054688 9.5 -20.800781 9.34375 -19.4375 C 9.1875 -18.070312 9.109375 -16.757812 9.109375 -15.5 C 9.109375 -14.238281 9.1875 -12.921875 9.34375 -11.546875 C 9.5 -10.179688 9.820312 -8.9375 10.3125 -7.8125 C 10.8125 -6.6875 11.539062 -5.742188 12.5 -4.984375 C 13.457031 -4.222656 14.738281 -3.84375 16.34375 -3.84375 Z M 16.34375 0.71875 C 13.863281 0.71875 11.742188 0.304688 9.984375 -0.515625 C 8.234375 -1.347656 6.816406 -2.5 5.734375 -3.96875 C 4.648438 -5.445312 3.859375 -7.160156 3.359375 -9.109375 C 2.859375 -11.066406 2.609375 -13.195312 2.609375 -15.5 C 2.609375 -17.75 2.859375 -19.863281 3.359375 -21.84375 C 3.859375 -23.820312 4.648438 -25.535156 5.734375 -26.984375 C 6.816406 -28.441406 8.234375 -29.59375 9.984375 -30.4375 C 11.742188 -31.28125 13.863281 -31.703125 16.34375 -31.703125 C 18.8125 -31.703125 20.914062 -31.28125 22.65625 -30.4375 C 24.394531 -29.59375 25.804688 -28.441406 26.890625 -26.984375 C 27.972656 -25.535156 28.765625 -23.820312 29.265625 -21.84375 C 29.765625 -19.863281 30.015625 -17.75 30.015625 -15.5 C 30.015625 -13.238281 29.765625 -11.117188 29.265625 -9.140625 C 28.765625 -7.171875 27.972656 -5.457031 26.890625 -4 C 25.804688 -2.550781 24.394531 -1.398438 22.65625 -0.546875 C 20.914062 0.296875 18.8125 0.71875 16.34375 0.71875 Z M 16.34375 0.71875 "/></g></g></g><g fill="#ffffff" fill-opacity="1"><g transform="translate(250.517221, 159.898837)"><g><path d="M 2.40625 -5.671875 C 3.539062 -5.148438 4.832031 -4.710938 6.28125 -4.359375 C 7.738281 -4.015625 9.050781 -3.84375 10.21875 -3.84375 C 10.875 -3.84375 11.566406 -3.894531 12.296875 -4 C 13.035156 -4.113281 13.71875 -4.3125 14.34375 -4.59375 C 14.976562 -4.875 15.5 -5.273438 15.90625 -5.796875 C 16.320312 -6.316406 16.53125 -6.988281 16.53125 -7.8125 C 16.53125 -8.675781 16.179688 -9.445312 15.484375 -10.125 C 14.796875 -10.800781 13.929688 -11.460938 12.890625 -12.109375 C 11.847656 -12.765625 10.707031 -13.414062 9.46875 -14.0625 C 8.238281 -14.71875 7.101562 -15.46875 6.0625 -16.3125 C 5.019531 -17.15625 4.148438 -18.117188 3.453125 -19.203125 C 2.753906 -20.285156 2.40625 -21.566406 2.40625 -23.046875 C 2.40625 -24.609375 2.71875 -25.929688 3.34375 -27.015625 C 3.976562 -28.097656 4.816406 -28.988281 5.859375 -29.6875 C 6.898438 -30.382812 8.070312 -30.894531 9.375 -31.21875 C 10.675781 -31.539062 12.019531 -31.703125 13.40625 -31.703125 C 14.664062 -31.703125 15.847656 -31.582031 16.953125 -31.34375 C 18.066406 -31.101562 19.226562 -30.851562 20.4375 -30.59375 L 20.4375 -25.328125 C 19.3125 -25.847656 18.160156 -26.28125 16.984375 -26.625 C 15.816406 -26.976562 14.601562 -27.15625 13.34375 -27.15625 C 12.863281 -27.15625 12.332031 -27.085938 11.75 -26.953125 C 11.164062 -26.828125 10.613281 -26.632812 10.09375 -26.375 C 9.570312 -26.113281 9.132812 -25.765625 8.78125 -25.328125 C 8.4375 -24.890625 8.265625 -24.390625 8.265625 -23.828125 C 8.265625 -23.003906 8.613281 -22.265625 9.3125 -21.609375 C 10.007812 -20.960938 10.878906 -20.332031 11.921875 -19.71875 C 12.960938 -19.113281 14.097656 -18.484375 15.328125 -17.828125 C 16.566406 -17.179688 17.707031 -16.445312 18.75 -15.625 C 19.789062 -14.800781 20.65625 -13.820312 21.34375 -12.6875 C 22.039062 -11.5625 22.390625 -10.21875 22.390625 -8.65625 C 22.390625 -6.875 22.078125 -5.382812 21.453125 -4.1875 C 20.828125 -3 19.976562 -2.035156 18.90625 -1.296875 C 17.84375 -0.566406 16.609375 -0.0507812 15.203125 0.25 C 13.796875 0.5625 12.3125 0.71875 10.75 0.71875 C 9.3125 0.71875 7.910156 0.609375 6.546875 0.390625 C 5.179688 0.171875 3.800781 -0.128906 2.40625 -0.515625 Z M 2.40625 -5.671875 "/></g></g></g><g fill="#ffffff" fill-opacity="1"><g transform="translate(274.603323, 159.898837)"><g><path d="M 21.296875 0.265625 C 20.554688 0.429688 19.796875 0.546875 19.015625 0.609375 C 18.234375 0.679688 17.453125 0.71875 16.671875 0.71875 C 15.273438 0.71875 14.015625 0.597656 12.890625 0.359375 C 11.765625 0.117188 10.785156 -0.28125 9.953125 -0.84375 C 9.128906 -1.40625 8.488281 -2.175781 8.03125 -3.15625 C 7.582031 -4.132812 7.359375 -5.363281 7.359375 -6.84375 L 7.359375 -26.4375 L 1.828125 -26.4375 L 1.828125 -30.984375 L 7.359375 -30.984375 L 7.359375 -38.28125 L 13.21875 -41.9375 L 13.21875 -30.984375 L 21.8125 -30.984375 L 21.8125 -26.4375 L 13.21875 -26.4375 L 13.21875 -9.890625 C 13.21875 -8.160156 13.53125 -6.71875 14.15625 -5.5625 C 14.789062 -4.414062 16.128906 -3.84375 18.171875 -3.84375 C 18.691406 -3.84375 19.222656 -3.875 19.765625 -3.9375 C 20.304688 -4 20.816406 -4.117188 21.296875 -4.296875 Z M 21.296875 0.265625 "/></g></g></g><g fill="#ffffff" fill-opacity="1"><g transform="translate(297.517665, 159.898837)"><g><path d="M 20.578125 -21.6875 C 20.578125 -23.332031 20.046875 -24.65625 18.984375 -25.65625 C 17.921875 -26.65625 16.5625 -27.15625 14.90625 -27.15625 C 13.644531 -27.15625 12.503906 -26.847656 11.484375 -26.234375 C 10.472656 -25.628906 9.707031 -24.738281 9.1875 -23.5625 C 8.875 -22.875 8.71875 -22.25 8.71875 -21.6875 Z M 25.71875 -0.328125 C 24.414062 -0.0234375 23.132812 0.222656 21.875 0.421875 C 20.613281 0.617188 19.3125 0.71875 17.96875 0.71875 C 15.1875 0.71875 12.832031 0.273438 10.90625 -0.609375 C 8.976562 -1.503906 7.394531 -2.742188 6.15625 -4.328125 C 4.914062 -5.910156 4.015625 -7.773438 3.453125 -9.921875 C 2.890625 -12.078125 2.609375 -14.4375 2.609375 -17 C 2.609375 -19.125 2.84375 -21.085938 3.3125 -22.890625 C 3.789062 -24.691406 4.539062 -26.242188 5.5625 -27.546875 C 6.582031 -28.847656 7.894531 -29.863281 9.5 -30.59375 C 11.113281 -31.332031 13.023438 -31.703125 15.234375 -31.703125 C 17.097656 -31.703125 18.734375 -31.382812 20.140625 -30.75 C 21.554688 -30.125 22.726562 -29.257812 23.65625 -28.15625 C 24.59375 -27.050781 25.289062 -25.738281 25.75 -24.21875 C 26.207031 -22.695312 26.4375 -21.046875 26.4375 -19.265625 L 26.4375 -17.78125 L 8.46875 -17.78125 C 8.46875 -16.039062 8.691406 -14.332031 9.140625 -12.65625 C 9.597656 -10.988281 10.289062 -9.503906 11.21875 -8.203125 C 12.15625 -6.898438 13.335938 -5.847656 14.765625 -5.046875 C 16.203125 -4.242188 17.898438 -3.84375 19.859375 -3.84375 C 20.898438 -3.84375 21.894531 -3.9375 22.84375 -4.125 C 23.800781 -4.320312 24.757812 -4.597656 25.71875 -4.953125 Z M 25.71875 -0.328125 "/></g></g></g><g fill="#ffffff" fill-opacity="1"><g transform="translate(326.420986, 159.898837)"><g><path d="M 4.8125 0 L 4.8125 -30.984375 L 10.671875 -30.984375 L 10.671875 -24.734375 L 10.8125 -24.734375 C 11.550781 -26.953125 12.742188 -28.664062 14.390625 -29.875 C 16.035156 -31.09375 18.03125 -31.703125 20.375 -31.703125 L 20.375 -25.328125 C 18.507812 -25.328125 16.957031 -25.007812 15.71875 -24.375 C 14.488281 -23.75 13.492188 -22.882812 12.734375 -21.78125 C 11.972656 -20.675781 11.4375 -19.382812 11.125 -17.90625 C 10.820312 -16.425781 10.671875 -14.84375 10.671875 -13.15625 L 10.671875 0 Z M 4.8125 0 "/></g></g></g><g fill="#ffffff" fill-opacity="1"><g transform="translate(185.419665, 228.898828)"><g><path d="M 28.640625 -44.921875 L 35.15625 -44.921875 L 35.15625 -13.28125 C 35.15625 -10.9375 34.773438 -8.882812 34.015625 -7.125 C 33.253906 -5.375 32.203125 -3.910156 30.859375 -2.734375 C 29.515625 -1.566406 27.910156 -0.695312 26.046875 -0.125 C 24.179688 0.4375 22.117188 0.71875 19.859375 0.71875 C 17.597656 0.71875 15.535156 0.4375 13.671875 -0.125 C 11.804688 -0.695312 10.210938 -1.566406 8.890625 -2.734375 C 7.566406 -3.910156 6.535156 -5.375 5.796875 -7.125 C 5.054688 -8.882812 4.6875 -10.9375 4.6875 -13.28125 L 4.6875 -44.921875 L 11.203125 -44.921875 L 11.203125 -14.515625 C 11.203125 -12.992188 11.332031 -11.613281 11.59375 -10.375 C 11.851562 -9.144531 12.304688 -8.09375 12.953125 -7.21875 C 13.609375 -6.351562 14.488281 -5.679688 15.59375 -5.203125 C 16.695312 -4.734375 18.097656 -4.5 19.796875 -4.5 C 21.523438 -4.5 22.960938 -4.722656 24.109375 -5.171875 C 25.265625 -5.628906 26.175781 -6.289062 26.84375 -7.15625 C 27.519531 -8.03125 27.988281 -9.082031 28.25 -10.3125 C 28.507812 -11.550781 28.640625 -12.953125 28.640625 -14.515625 Z M 28.640625 -44.921875 "/></g></g></g><g fill="#ffffff" fill-opacity="1"><g transform="translate(225.194276, 228.898828)"><g><path d="M 43.234375 0 L 43.234375 -37.25 L 43.109375 -37.25 L 30.203125 0 L 24.03125 0 L 11.140625 -37.25 L 11 -37.25 L 11 0 L 5.140625 0 L 5.140625 -44.921875 L 14.328125 -44.921875 L 27.078125 -8.140625 L 27.21875 -8.140625 L 39.984375 -44.921875 L 49.09375 -44.921875 L 49.09375 0 Z M 43.234375 0 "/></g></g></g><g fill="#ffffff" fill-opacity="1"><g transform="translate(279.420542, 228.898828)"><g><path d="M 28.328125 0 L 11.84375 -21.8125 L 11.71875 -21.8125 L 11.71875 0 L 5.203125 0 L 5.203125 -44.921875 L 11.71875 -44.921875 L 11.71875 -24.9375 L 11.84375 -24.9375 L 27.078125 -44.921875 L 34.90625 -44.921875 L 18.421875 -23.5 L 36.203125 0 Z M 28.328125 0 "/></g></g></g><g fill="#ffffff" fill-opacity="1"><g transform="translate(315.61479, 228.898828)"><g><path d="M 43.234375 0 L 43.234375 -37.25 L 43.109375 -37.25 L 30.203125 0 L 24.03125 0 L 11.140625 -37.25 L 11 -37.25 L 11 0 L 5.140625 0 L 5.140625 -44.921875 L 14.328125 -44.921875 L 27.078125 -8.140625 L 27.21875 -8.140625 L 39.984375 -44.921875 L 49.09375 -44.921875 L 49.09375 0 Z M 43.234375 0 "/></g></g></g></svg>